<?xml version="1.0" encoding="UTF-8"?>
<svg id="Layer_1" xmlns="http://www.w3.org/2000/svg" version="1.1" viewBox="0 0 841.89 301.75">
  <!-- Generator: Adobe Illustrator 29.6.0, SVG Export Plug-In . SVG Version: 2.1.1 Build 207)  -->
  <defs>
    <style>
      .st0 {
        fill: #a2c037;
      }
    </style>
  </defs>
  <path class="st0" d="M744.66,252.88l37.01-5.61V109.24h-37.01l-28.6,15.36c-5.34-9.41-15.65-17.77-38.99-17.77-32.11,0-67.45,24.76-67.45,72.43,0,51.17,38.36,73.61,72.56,73.61,19.64,0,36.06-6.8,43.77-16.2v-5.56h-28.35c-28.08,0-50.99-13.75-50.99-57.5,0-34.97,18.46-51.43,39.12-51.43,13.06,0,21.03,8.39,24.3,18.98h5.68l28.96-14.5v126.21ZM222.21,109.24c-1.79,23.75-29.45,40.12-57.59,44.84v.46c31.86.42,55.79,13.92,55.79,44.37,0,41.56-36.31,55.35-80.97,55.35-33.33,0-60.25-9.32-78.25-21.72v-120.56l37.01-5.66v123.86c8.41,4.51,21.05,7.46,34.85,7.46,36.3,0,49.35-16.74,49.35-39.64,0-26.28-16.81-37.38-46.76-37.38h-14.03v-8.19c34.18-4.04,52.15-16.19,55.26-43.19h45.33ZM424.94,175.72c10.75-3.49,20.14-5.86,29.89-5.86,10.84,0,18.02,3.29,21.38,13.37l17.75,56.57c29.27-5.32,44.71-22.91,44.71-62.44,0-43.45-23.89-53.95-52.91-53.95-23.15,0-42.85,7.93-57.57,18.01l-8.17-13.66c14.03-9.5,39.1-19.79,70.43-19.79,42.17,0,87.31,18.48,87.31,68.72,0,54.09-41.89,68.52-79.32,73.36h-31.81l-25.27-55.09c-4.31-9.15-7.96-13.58-16.41-13.58v-5.66ZM247.51,127.39c13.35-9.59,35.12-19.41,65.36-19.41,45.59,0,83.11,22.4,83.11,72.64,0,54.75-39.38,72.26-70.98,72.26-27.12,0-47.28-6.33-62.04-16.2v-5.56h30.19c42.63,0,63.46-18.27,63.46-57.5s-21.71-50.2-48.97-50.2c-21.19,0-39.05,8.39-52.13,16.99l-7.99-13.02ZM421.87,91.15h147.49v-12.36c-55.05,0-83.33-7.26-115.21-7.26-21.46,0-28.73,7.01-32.28,14.64v4.98ZM85.36,71.53c-15.45,0-22.05,8.23-25.13,14.64v4.98h139.29c19.49,0,26.2-8.4,26.2-25.02v-18.65h-42.59v16.58c0,10.25-4.69,13.12-13.3,13.12-31.14,0-60.88-5.66-84.46-5.66"/>
</svg>